<svg width="35" height="35" viewBox="0 0 35 35" fill="none" xmlns="http://www.w3.org/2000/svg">
<path fill-rule="evenodd" clip-rule="evenodd" d="M3 0C1.34315 0 0 1.34314 0 2.99999V31.5563C0 33.2132 1.34314 34.5563 2.99999 34.5563H31.5563C33.2132 34.5563 34.5563 33.2132 34.5563 31.5563V3C34.5563 1.34315 33.2132 0 31.5563 0H3ZM12.2428 8.27297C12.2473 8.8161 12.0206 9.33907 11.6116 9.72892C11.2025 10.1187 10.644 10.3441 10.0567 10.3564C9.47063 10.3365 8.91521 10.1092 8.50524 9.72145C8.09526 9.3337 7.86206 8.81517 7.85383 8.27297C7.8793 7.74471 8.12108 7.24518 8.53014 6.87564C8.9392 6.50609 9.48493 6.29418 10.0567 6.28287C10.6268 6.29439 11.1706 6.50683 11.577 6.87674C11.9833 7.24665 12.2215 7.7461 12.2428 8.27297ZM8.08925 14.0567C8.08925 13.0079 8.72169 13.0211 9.64733 13.0405C9.77824 13.0433 9.91503 13.0461 10.0567 13.0461C10.1985 13.0461 10.3351 13.0432 10.4656 13.0405L10.466 13.0405C11.3881 13.0211 12.0074 13.0081 12.0074 14.0567V25.7175C12.0074 26.7442 11.4168 26.7233 10.5519 26.6928L10.5518 26.6928C10.3951 26.6873 10.2295 26.6814 10.0567 26.6814C9.88424 26.6814 9.71848 26.6873 9.56139 26.6928L9.56104 26.6928C8.69217 26.7233 8.08925 26.7445 8.08925 25.7175V14.0567ZM15.4042 14.0567C15.4042 13.3882 15.6732 13.1394 16.0936 13.0617C16.3934 13.0062 17.2152 13.0299 17.8448 13.048C18.0979 13.0553 18.32 13.0617 18.4646 13.0617C18.9691 13.0617 19.1709 13.8235 19.1541 14.3988C19.5856 13.8633 20.1585 13.4392 20.818 13.167C21.4776 12.8947 22.2016 12.7835 22.9209 12.844C23.6272 12.8041 24.3347 12.902 24.9974 13.1314C25.6601 13.3608 26.2632 13.7165 26.7676 14.1754C27.2718 14.6344 27.6661 15.1863 27.9246 15.7953C28.1832 16.4044 28.3003 17.0569 28.2683 17.7104V25.6708C28.2683 26.697 27.6904 26.6768 26.8199 26.6463L26.8198 26.6463L26.8124 26.646C26.6562 26.6405 26.4908 26.6348 26.3176 26.6348C26.1445 26.6348 25.9791 26.6405 25.823 26.646L25.8156 26.6463L25.8155 26.6463C24.945 26.6768 24.367 26.697 24.367 25.6708V19.4518C24.3966 19.1317 24.3513 18.8095 24.2343 18.507C24.1172 18.2046 23.9311 17.9289 23.6887 17.6989C23.4461 17.4688 23.1531 17.2896 22.829 17.1736C22.505 17.0576 22.1578 17.0073 21.811 17.0263C21.4658 17.0182 21.1226 17.078 20.8043 17.2017C20.4859 17.3255 20.1996 17.5103 19.9643 17.744C19.729 17.9777 19.5501 18.255 19.4394 18.5574C19.3287 18.8599 19.2888 19.1806 19.3223 19.4984V25.7175C19.3223 26.744 18.7319 26.7235 17.8571 26.6928C17.6984 26.6873 17.5304 26.6814 17.3548 26.6814C17.1789 26.6814 17.0109 26.6873 16.8527 26.6928C15.9821 26.7235 15.4042 26.7436 15.4042 25.7175V14.0567Z" fill="white"/>
</svg>
