<svg width="35" height="35" viewBox="0 0 35 35" fill="none" xmlns="http://www.w3.org/2000/svg">
<path fill-rule="evenodd" clip-rule="evenodd" d="M1.16784 1.16784C1.91559 0.420085 2.92979 0 3.98727 0H30.5691C31.6265 0 32.6409 0.420085 33.3886 1.16784C34.1363 1.91559 34.5563 2.92977 34.5563 3.98727V30.5691C34.5563 31.6265 34.1363 32.6409 33.3886 33.3886C32.6409 34.1363 31.6265 34.5563 30.5691 34.5563H22.5945V22.6211H24.4818C24.9119 22.6211 25.3242 22.4502 25.6283 22.1461C25.9324 21.8421 26.1033 21.4296 26.1033 20.9996V18.9528C26.1033 18.7399 26.0613 18.529 25.98 18.3323C25.8984 18.1355 25.779 17.9568 25.6283 17.8062C25.4779 17.6557 25.299 17.5362 25.1024 17.4547C24.9056 17.3733 24.6948 17.3313 24.4818 17.3313H22.7009V15.4972C22.7009 13.2643 23.711 13.2643 24.7211 13.2643H26.0236C26.2376 13.2731 26.4508 13.2348 26.6483 13.1521C26.8458 13.0694 27.0228 12.9444 27.1666 12.7858C27.321 12.6387 27.4433 12.4612 27.5257 12.2645C27.6081 12.0677 27.6488 11.8561 27.6451 11.6428V9.67575C27.6522 9.45929 27.6166 9.24356 27.5401 9.0409C27.4638 8.83821 27.3484 8.65256 27.2001 8.49456C27.052 8.33658 26.8742 8.20931 26.677 8.12008C26.4797 8.03084 26.2665 7.98137 26.0502 7.97451C25.7554 7.97451 25.46 7.97127 25.165 7.96803C22.6229 7.94009 20.1069 7.91245 18.2214 9.96363C16.5474 11.7847 16.5871 14.006 16.6277 16.277C16.6339 16.6277 16.6402 16.9795 16.6402 17.3313H14.939C14.7238 17.3278 14.5101 17.3671 14.3103 17.447C14.1105 17.5269 13.9286 17.6458 13.7752 17.7967C13.6218 17.9477 13.5 18.1276 13.4168 18.3261C13.3337 18.5246 13.2909 18.7376 13.2909 18.9528V20.9996C13.2909 21.2148 13.3337 21.4278 13.4168 21.6263C13.5 21.8248 13.6218 22.0047 13.7752 22.1557C13.9286 22.3066 14.1105 22.4255 14.3103 22.5054C14.5101 22.5853 14.7238 22.6246 14.939 22.6211H16.6402V34.5563H3.98727C2.92977 34.5563 1.91559 34.1363 1.16784 33.3886C0.420085 32.6409 0 31.6265 0 30.5691V3.98727C0 2.92979 0.420085 1.91559 1.16784 1.16784Z" fill="white"/>
</svg>
